<?xml version="1.0" standalone="no"?>
<!DOCTYPE svg PUBLIC "-//W3C//DTD SVG 20010904//EN"
 "http://www.w3.org/TR/2001/REC-SVG-20010904/DTD/svg10.dtd">
<svg version="1.0" xmlns="http://www.w3.org/2000/svg"
 width="1228.000000pt" height="1280.000000pt" viewBox="0 0 1228.000000 1280.000000"
 preserveAspectRatio="xMidYMid meet">
<g transform="translate(0.000000,1280.000000) scale(0.100000,-0.100000)"
fill="#000000" stroke="none">
<path d="M3197 12772 c-37 -15 -94 -47 -127 -71 -149 -109 -343 -351 -510
-636 -100 -170 -92 -162 -152 -169 -336 -40 -917 -68 -982 -46 -38 12 -99 61
-461 370 -385 328 -616 480 -728 480 -25 0 -42 -9 -69 -37 -73 -77 -92 -152
-91 -358 1 -216 30 -425 174 -1255 l22 -125 -46 -68 c-88 -129 -159 -306 -191
-473 -47 -253 -46 -286 4 -563 69 -383 320 -816 704 -1219 116 -122 131 -151
228 -440 l53 -157 -3 -280 c-3 -297 2 -353 45 -515 42 -158 99 -290 286 -660
99 -195 264 -521 367 -725 103 -203 207 -422 233 -486 83 -210 79 -159 78
-919 -2 -965 -25 -1375 -91 -1636 -31 -119 -48 -144 -132 -189 -104 -57 -254
-206 -296 -295 -41 -88 -48 -144 -27 -215 19 -68 88 -143 173 -191 44 -25 53
-34 57 -64 24 -157 55 -237 114 -294 62 -61 258 -131 436 -155 174 -25 360 -4
480 53 67 32 228 149 309 225 64 61 133 158 191 272 30 59 59 110 63 113 4 2
93 -10 197 -28 l190 -32 -1 -30 c-1 -16 -9 -58 -19 -94 -26 -97 -17 -211 24
-294 62 -126 214 -239 366 -271 339 -73 1129 28 1983 253 l152 41 78 -36 c137
-62 245 -85 432 -90 139 -4 184 -2 285 16 169 31 329 87 555 195 218 105 368
160 569 211 329 82 622 120 1031 134 681 24 1271 -67 1635 -252 117 -59 165
-93 238 -164 338 -329 -137 -645 -1338 -888 l-260 -53 -86 -90 c-144 -150
-190 -273 -139 -372 47 -92 185 -146 491 -190 112 -17 259 -5 539 41 563 93
1226 370 1615 674 92 72 245 228 293 298 69 100 142 294 142 377 0 45 -38 178
-71 245 -97 199 -404 474 -776 696 -1000 596 -2449 820 -3761 583 -79 -14
-146 -23 -149 -20 -4 3 -2 25 4 49 6 23 32 123 57 222 113 442 193 943 226
1420 14 203 14 717 0 900 -71 924 -327 1640 -798 2235 -101 127 -353 376 -482
476 -387 299 -775 494 -1288 644 -146 43 -181 64 -437 256 -178 133 -267 222
-309 307 -96 192 -388 498 -602 629 l-82 50 -52 146 c-109 303 -219 537 -288
614 -40 44 -40 16 2 303 55 374 77 639 77 925 0 294 -20 445 -77 570 -31 69
-56 95 -116 126 -59 30 -77 30 -161 -4z"/>
</g>
</svg>
